<?xml version="1.0" encoding="iso-8859-1"?>
<!-- Generator: Adobe Illustrator 19.0.0, SVG Export Plug-In . SVG Version: 6.00 Build 0)  -->
<svg version="1.1" id="Capa_1" xmlns="http://www.w3.org/2000/svg" xmlns:xlink="http://www.w3.org/1999/xlink" x="0px" y="0px"
	 viewBox="0 0 512 512" style="enable-background:new 0 0 512 512;" xml:space="preserve">
<path style="fill:#303C42;" d="M425.365,197.563c-1.875-3.417-5.458-5.552-9.365-5.552H298.667V10.684
	c0-4.729-3.115-8.896-7.656-10.239c-4.563-1.365-9.427,0.49-11.979,4.469l-192,298.656c-2.115,3.281-2.26,7.458-0.396,10.885
	C88.51,317.871,92.094,320,96,320h117.333v181.334c0,4.729,3.115,8.896,7.656,10.239c1,0.292,2.01,0.427,3.01,0.427
	c3.563,0,6.969-1.792,8.969-4.896l192-298.656C427.083,205.167,427.229,200.99,425.365,197.563z"/>
<path style="fill:#FFCA28;" d="M234.667,465.012V309.34c0-5.896-4.771-10.666-10.667-10.666H115.542L277.333,47.006v155.672
	c0,5.896,4.771,10.656,10.667,10.656h108.458L234.667,465.012z"/>
<polygon style="opacity:0.1;enable-background:new    ;" points="396.458,213.333 341.333,213.333 233.665,466.57 "/>
<polygon style="opacity:0.2;fill:#FFFFFF;enable-background:new    ;" points="115.541,298.673 170.667,298.667 277.333,47.006 "/>
<linearGradient id="SVGID_1_" gradientUnits="userSpaceOnUse" x1="-40.3591" y1="637.1215" x2="-29.0471" y2="631.8465" gradientTransform="matrix(21.3333 0 0 -21.3333 996.3334 13791.667)">
	<stop  offset="0" style="stop-color:#FFFFFF;stop-opacity:0.2"/>
	<stop  offset="1" style="stop-color:#FFFFFF;stop-opacity:0"/>
</linearGradient>
<path style="fill:url(#SVGID_1_);" d="M425.365,197.563c-1.875-3.417-5.458-5.552-9.365-5.552H298.667V10.684
	c0-4.729-3.115-8.896-7.656-10.239c-4.563-1.365-9.427,0.49-11.979,4.469l-192,298.656c-2.115,3.281-2.26,7.458-0.396,10.885
	C88.51,317.871,92.094,320,96,320h117.333v181.334c0,4.729,3.115,8.896,7.656,10.239c1,0.292,2.01,0.427,3.01,0.427
	c3.563,0,6.969-1.792,8.969-4.896l192-298.656C427.083,205.167,427.229,200.99,425.365,197.563z"/>
<g>
</g>
<g>
</g>
<g>
</g>
<g>
</g>
<g>
</g>
<g>
</g>
<g>
</g>
<g>
</g>
<g>
</g>
<g>
</g>
<g>
</g>
<g>
</g>
<g>
</g>
<g>
</g>
<g>
</g>
</svg>
