<?xml version="1.0" encoding="iso-8859-1"?>
<!-- Generator: Adobe Illustrator 19.0.0, SVG Export Plug-In . SVG Version: 6.00 Build 0)  -->
<svg version="1.1" id="Layer_1" xmlns="http://www.w3.org/2000/svg" xmlns:xlink="http://www.w3.org/1999/xlink" x="0px" y="0px"
	 viewBox="0 0 511.999 511.999" style="enable-background:new 0 0 511.999 511.999;" xml:space="preserve">
<g>
	<path style="fill:#0084FF;" d="M361.915,267.756v59.916c0,42.682-16.955,83.615-47.136,113.797L255.8,500.447L248.37,355.87
		L361.915,267.756z"/>
	<path style="fill:#0084FF;" d="M245.399,150.382l-62.565-1.807c-42.682,0-83.616,16.955-113.797,47.136L10.058,254.69
		l144.577,7.429L245.399,150.382z"/>
</g>
<path style="fill:#00C3FF;" d="M137.09,283.727c7.497,13.779,19.379,32.156,37.633,50.536c18.771,18.9,37.622,31.097,51.611,38.708
	c54.244-42.093,108.489-84.187,162.732-126.28C456.394,194.443,497.538,115.39,501.704,30.27l0.239-4.886
	c0.386-7.871-6.164-14.325-14.029-13.823l-9.347,0.596c-81.284,5.189-156.708,44.091-208.061,107.314L137.09,283.727z"/>
<g>
	<path style="fill:#F2427F;" d="M146.848,299.966l-34.361,40.79c4.441,9.383,11.715,21.767,23.567,33.717
		c12.187,12.289,24.89,19.757,34.416,24.266c12.648-10.262,28.825-24.052,41.473-34.314"/>
	<circle style="fill:#F2427F;" cx="368.265" cy="148.245" r="32.693"/>
</g>
<path style="fill:#FF991F;" d="M91.155,390.658l-24.014,11.958c-13.675,6.809-22.717,20.355-23.76,35.597L42.43,452.12
	c-0.663,9.673,7.369,17.705,17.043,17.043l13.908-0.952c15.241-1.043,28.788-10.085,35.597-23.76l11.958-24.015"/>
<circle cx="10.06" cy="500.446" r="10.06"/>
<circle cx="267.005" cy="245.308" r="10.04"/>
<path d="M368.263,105.516c-11.414,0-22.146,4.446-30.216,12.516c-16.661,16.662-16.661,43.772,0,60.433
	c8.332,8.331,19.272,12.495,30.216,12.495c10.941,0,21.886-4.166,30.216-12.495l0,0c16.661-16.662,16.661-43.772,0-60.433
	C390.409,109.961,379.677,105.516,368.263,105.516z M384.282,164.266c-8.833,8.832-23.206,8.832-32.037,0
	c-8.833-8.832-8.833-23.204,0-32.037c4.279-4.279,9.967-6.635,16.018-6.635c6.051,0,11.739,2.356,16.018,6.635
	C393.114,141.062,393.114,155.434,384.282,164.266z"/>
<path d="M125.409,411.45c-4.964-2.472-10.99-0.451-13.462,4.512l-11.958,24.015c-5.2,10.441-15.658,17.423-27.296,18.219
	l-13.908,0.952c-2.351,0.157-3.897-1.014-4.612-1.729c-0.715-0.715-1.889-2.264-1.729-4.613l0.952-13.907
	c0.797-11.637,7.779-22.096,18.219-27.296l24.014-11.958c4.964-2.472,6.984-8.499,4.512-13.462
	c-2.471-4.963-8.498-6.984-13.462-4.512l-24.014,11.958c-16.792,8.362-28.02,25.182-29.302,43.898l-0.952,13.907
	c-0.514,7.507,2.242,14.863,7.562,20.183c4.898,4.898,11.524,7.624,18.403,7.624c0.591,0,1.186-0.02,1.78-0.061l13.908-0.952
	c18.716-1.281,35.536-12.508,43.898-29.302l11.958-24.014C132.392,419.948,130.372,413.922,125.409,411.45z"/>
<path d="M505.07,8.18c-4.711-4.641-11.201-7.068-17.793-6.639l-9.348,0.596c-83.819,5.351-162.262,45.81-215.215,111.004
	L240.71,140.23l-57.583-1.691c-0.098-0.003-0.197-0.004-0.294-0.004c-45.668,0-88.603,17.784-120.896,50.076L2.959,247.59
	c-2.805,2.805-3.696,7-2.272,10.702c1.424,3.703,4.894,6.221,8.856,6.423l124.844,6.414l-5.09,6.267
	c-2.565,3.158-2.971,7.553-1.026,11.127c1.956,3.596,4.006,7.135,6.144,10.617l-29.606,35.147c-2.531,3.005-3.076,7.21-1.397,10.763
	c6.467,13.665,15.05,25.943,25.514,36.493c10.718,10.808,23.251,19.646,37.249,26.271c1.368,0.648,2.835,0.965,4.293,0.965
	c2.261,0,4.503-0.764,6.327-2.243c6.378-5.174,13.731-11.311,20.843-17.245c5.069-4.23,10.256-8.557,15.102-12.547
	c2.893,1.741,5.822,3.429,8.795,5.046c1.504,0.818,3.153,1.221,4.796,1.221c2.186,0,4.358-0.712,6.156-2.108l6.843-5.31
	l6.442,125.37c0.204,3.962,2.721,7.432,6.423,8.856c1.172,0.45,2.39,0.67,3.6,0.67c2.615,0,5.183-1.023,7.101-2.942l58.979-58.979
	c32.293-32.293,50.076-75.227,50.076-120.896v-54.995l23.267-18.055c69.73-54.11,112.196-135.704,116.512-223.862l0.239-4.886
	C512.295,19.27,509.779,12.822,505.07,8.18z M33.123,245.822l43.012-43.012c28.465-28.465,66.303-44.157,106.553-44.196
	l42.085,1.236l-74.71,91.98L33.123,245.822z M184.774,373.874c-5.241,4.372-10.614,8.856-15.6,12.957
	c-9.644-5.223-18.368-11.74-25.992-19.428c-7.384-7.445-13.669-15.922-18.737-25.26l21.676-25.733
	c6.554,8.793,13.728,17.122,21.478,24.925c0.006,0.006,0.012,0.011,0.018,0.017c0.002,0.002,0.004,0.005,0.006,0.007
	c0.003,0.003,0.006,0.005,0.009,0.008c8.593,8.648,17.836,16.584,27.641,23.761C191.811,368.002,188.264,370.962,184.774,373.874z
	 M351.875,327.672c0,40.305-15.695,78.197-44.196,106.698l-43.012,43.012l-6.002-116.792l93.209-72.33V327.672z M491.678,29.779
	c-4.029,82.297-43.673,158.467-108.767,208.98l-157.46,122.189c-13.058-7.63-25.229-16.639-36.368-26.846l53.086-53.086
	c3.92-3.92,3.92-10.278,0-14.199c-3.921-3.921-10.278-3.921-14.199,0l-53.036,53.036c-9.751-10.795-18.387-22.541-25.74-35.104
	L278.3,125.8C327.732,64.941,400.96,27.171,479.207,22.177l9.348-0.596c1.225-0.076,2.045,0.532,2.423,0.904
	c0.376,0.371,1,1.178,0.94,2.409L491.678,29.779z"/>
<g>
</g>
<g>
</g>
<g>
</g>
<g>
</g>
<g>
</g>
<g>
</g>
<g>
</g>
<g>
</g>
<g>
</g>
<g>
</g>
<g>
</g>
<g>
</g>
<g>
</g>
<g>
</g>
<g>
</g>
</svg>
